<?xml version="1.0" encoding="UTF-8" standalone="no"?>
<!-- Created with Inkscape (http://www.inkscape.org/) -->

<svg
   xmlns:dc="http://purl.org/dc/elements/1.1/"
   xmlns:cc="http://creativecommons.org/ns#"
   xmlns:rdf="http://www.w3.org/1999/02/22-rdf-syntax-ns#"
   xmlns:svg="http://www.w3.org/2000/svg"
   xmlns="http://www.w3.org/2000/svg"
   xmlns:sodipodi="http://sodipodi.sourceforge.net/DTD/sodipodi-0.dtd"
   xmlns:inkscape="http://www.inkscape.org/namespaces/inkscape"
   width="72"
   height="72"
   id="svg3111"
   version="1.1"
   inkscape:version="0.48.1 r9760"
   sodipodi:docname="GHogIcon.svg"
   inkscape:export-filename="/Users/andy/Desktop/icon.png"
   inkscape:export-xdpi="91.285713"
   inkscape:export-ydpi="91.285713">
  <defs
     id="defs3113" />
  <sodipodi:namedview
     id="base"
     pagecolor="#ffffff"
     bordercolor="#666666"
     borderopacity="1.0"
     inkscape:pageopacity="0.0"
     inkscape:pageshadow="2"
     inkscape:zoom="2"
     inkscape:cx="-35.49987"
     inkscape:cy="134.90697"
     inkscape:document-units="px"
     inkscape:current-layer="layer1"
     showgrid="false"
     fit-margin-top="0"
     fit-margin-left="0"
     fit-margin-right="0"
     fit-margin-bottom="0"
     inkscape:window-width="1230"
     inkscape:window-height="855"
     inkscape:window-x="1922"
     inkscape:window-y="168"
     inkscape:window-maximized="0" />
  <metadata
     id="metadata3116">
    <rdf:RDF>
      <cc:Work
         rdf:about="">
        <dc:format>image/svg+xml</dc:format>
        <dc:type
           rdf:resource="http://purl.org/dc/dcmitype/StillImage" />
        <dc:title></dc:title>
      </cc:Work>
    </rdf:RDF>
  </metadata>
  <g
     inkscape:label="Layer 1"
     inkscape:groupmode="layer"
     id="layer1"
     transform="translate(-119.29299,-306.10958)">
    <g
       id="g3791">
      <rect
         y="321.04092"
         x="140.94241"
         height="49.682247"
         width="32.197117"
         id="rect3765"
         style="fill:#ffffff;fill-opacity:1;fill-rule:evenodd;stroke:#000000;stroke-width:0.83035749px;stroke-linecap:butt;stroke-linejoin:miter;stroke-opacity:0" />
      <path
         inkscape:connector-curvature="0"
         id="path3287"
         d="m 145.90044,377.39044 c -10.7532,-1.09167 -22.32504,-5.63409 -24.81901,-9.74249 -2.29721,-3.78425 -0.0366,-8.78409 4.9689,-10.98977 2.95009,-1.29997 3.00972,-1.42572 3.71533,-7.83384 0.35463,-3.22079 3.28499,-16.24445 4.28007,-19.02233 0.28643,-0.79963 -0.21229,-1.35703 -1.81094,-2.02404 -2.97557,-1.24151 -4.22967,-3.56754 -3.69534,-6.85394 0.67069,-4.12508 2.42418,-6.14543 5.33369,-6.14543 1.36428,0 2.98263,0.31007 3.59634,0.68904 0.8638,0.53341 1.45088,0.27455 2.59922,-1.14608 3.65855,-4.52599 12.92528,-7.33965 19.50312,-5.92173 3.31631,0.71487 8.80799,3.72284 10.40707,5.7003 0.87468,1.08166 1.41279,1.21367 2.68051,0.65753 2.73854,-1.20136 5.52948,-0.83138 6.91628,0.91688 2.53417,3.19466 2.37182,5.8743 -0.58293,9.62153 -1.10446,1.40067 -1.1494,1.83483 -0.44483,4.29811 1.19701,4.18495 0.91902,10.18756 -0.66905,14.44705 -1.24552,3.34068 -1.30934,4.0442 -0.62338,6.87111 0.71909,2.96343 0.97964,3.24002 4.41298,4.68445 7.49667,3.15392 9.98316,8.41941 6.09461,12.90615 -5.60173,6.46349 -25.05616,10.59369 -41.86264,8.8875 z m 19.72282,-22.22926 c 1.15264,-0.81409 0.31597,-3.57343 -1.53652,-5.0674 l -1.98094,-1.59757 -1.80918,2.13513 c -0.99505,1.17433 -2.05554,2.13514 -2.35666,2.13514 -0.66692,0 -0.72924,2.41826 -0.0816,3.16596 0.45263,0.52257 6.82986,-0.11086 7.76489,-0.77126 z m -13.93724,-29.81265 c 0.11416,-0.69107 -0.23597,-1.45286 -0.77805,-1.69288 -1.28022,-0.56685 -2.86056,0.95844 -2.40677,2.32291 0.47564,1.4302 2.92452,0.94575 3.18482,-0.63003 z m 19.30427,-0.79867 c 0.53716,-0.74683 0.47394,-1.20121 -0.26572,-1.9095 -0.80617,-0.772 -1.14951,-0.723 -2.02653,0.2892 -0.92615,1.06892 -0.94142,1.3022 -0.12412,1.89852 1.25025,0.91222 1.58808,0.87332 2.41637,-0.27822 z"
         style="fill:#b0944f" />
      <path
         inkscape:connector-curvature="0"
         id="path3293"
         d="m 145.19809,376.22174 c -17.41419,-2.12038 -27.87203,-9.31664 -23.64901,-16.27335 0.53712,-0.88482 2.59204,-2.54969 4.56649,-3.69972 l 3.58991,-2.09096 0.406,-4.4819 c 0.34154,-3.77037 3.13648,-16.87971 4.42396,-20.75001 0.27707,-0.83294 -0.28789,-1.43506 -2.12973,-2.26985 -3.13077,-1.41899 -4.12067,-3.87399 -3.07665,-7.63021 1.09664,-3.94552 2.26371,-5.09474 5.16121,-5.08223 1.39907,0.006 2.93573,0.29729 3.41476,0.64724 0.61011,0.4457 1.78893,-0.20097 3.93595,-2.15915 4.15824,-3.79255 8.50587,-5.16039 15.28053,-4.80752 5.81278,0.30276 9.85345,1.98779 12.73241,5.30965 1.28462,1.48223 1.76102,1.63411 3.17715,1.01287 2.91017,-1.27665 5.59073,-0.88568 7.16242,1.04466 1.89586,2.3285 1.79012,5.52346 -0.28678,8.66532 -1.4565,2.20332 -1.55664,2.73157 -0.97555,5.14588 1.02278,4.24945 0.76799,9.49366 -0.68903,14.18175 -1.23535,3.97489 -1.27295,4.57449 -0.46601,7.43173 0.77089,2.72964 1.21122,3.23652 3.61712,4.16377 5.20892,2.00757 8.75266,5.7105 8.75266,9.14584 0,0.54253 -0.73401,1.99292 -1.63111,3.2231 -5.28891,7.25242 -25.09308,11.49204 -43.3167,9.27309 z m 25.76169,-9.85716 c 5.46753,-2.46566 5.85433,-3.26022 4.99606,-10.26294 -0.39451,-3.21871 -0.85561,-6.01183 -1.02469,-6.20691 -0.16907,-0.19509 -0.82033,0.18088 -1.44722,0.83549 -0.6269,0.6546 -1.75128,1.19019 -2.49862,1.19019 -0.93299,0 -1.67359,0.76162 -2.36325,2.43034 -1.06607,2.57949 -2.73536,3.2787 -7.86828,3.29579 -3.17804,0.0106 -4.59007,-0.98116 -5.08285,-3.56991 -0.28692,-1.50727 -0.7788,-2.15622 -1.63433,-2.15622 -3.30554,0 -6.13528,-3.41329 -6.12937,-7.39338 0.002,-1.36504 0.1572,-1.27293 1.20913,0.71767 1.54495,2.92355 3.02628,3.80989 6.35729,3.8038 2.3748,-0.004 2.85308,-0.29658 4.18884,-2.55946 l 1.50794,-2.55456 -1.60472,-1.56187 c -1.8741,-1.82406 -3.17835,-4.52422 -2.65619,-5.49906 0.79877,-1.49125 4.94718,-2.31472 7.56442,-1.50156 4.23757,1.3166 4.54239,2.49829 1.4846,5.75549 -2.25818,2.40544 -2.52796,2.99405 -1.94667,4.24728 1.03991,2.24201 3.2104,3.67864 5.55776,3.67864 1.70513,0 2.61031,-0.5986 4.52622,-2.99313 4.36654,-5.45744 4.64013,-11.67902 0.91709,-20.85445 -4.12136,-10.15706 -9.17813,-14.47388 -17.91843,-15.29645 -5.69785,-0.53626 -9.97106,1.16185 -14.45537,5.74436 l -3.09158,3.15929 -2.31909,-1.36511 c -1.2755,-0.75083 -2.55705,-1.36513 -2.8479,-1.36513 -1.10102,0 -3.24744,2.98775 -3.23832,4.50762 0.015,2.49394 0.83508,3.40698 3.87967,4.31931 l 2.83404,0.84924 -1.48568,5.37564 c -1.81878,6.58092 -3.77706,17.98449 -4.24701,24.73147 l -0.34971,5.02078 2.63025,1.85497 c 6.37303,4.49455 11.38163,5.62949 23.75074,5.38193 7.86765,-0.15749 9.86064,-0.43127 12.80523,-1.75916 z m -24.00823,-34.47849 c -2.93251,-1.37153 -3.83609,-5.58322 -1.92126,-8.95519 0.8816,-1.55249 1.50415,-1.83085 4.09466,-1.83085 1.68023,0 3.23055,0.3278 3.44514,0.72844 0.2146,0.40065 0.58052,0.59315 0.81316,0.42777 0.55843,-0.39698 0.8786,5.07166 0.399,6.81518 -0.38531,1.4008 -3.32432,3.53198 -4.75941,3.45121 -0.44404,-0.0251 -1.37612,-0.31143 -2.07129,-0.63656 z m 5.18959,-7.38147 c -0.24188,-1.9652 -2.64744,-2.61303 -3.22741,-0.86914 -0.55413,1.66618 0.0593,2.48184 1.8664,2.48184 1.26196,0 1.52164,-0.30769 1.36101,-1.6127 z m 13.15711,3.76296 c -2.76966,-3.19575 -0.59218,-8.60103 3.46487,-8.60103 4.16885,0 6.38089,5.15597 3.68608,8.59178 -1.53,1.95072 -5.46391,1.95581 -7.15095,0.01 z m 6.03913,-4.38786 c 0.95432,-1.10112 0.29043,-2.77967 -1.0994,-2.77967 -1.36952,0 -2.07173,1.11766 -1.59772,2.54296 0.41252,1.24041 1.72725,1.35579 2.69712,0.23671 z m -5.33385,30.48936 c 1.20772,-0.86123 0.46524,-3.67389 -1.38691,-5.25391 l -1.924,-1.64131 -1.95844,2.13528 c -1.07714,1.1744 -2.27386,2.25551 -2.65938,2.40246 -0.47278,0.18021 -0.51971,0.82376 -0.14415,1.97705 0.5238,1.60862 0.7634,1.68184 4.04628,1.23665 1.91923,-0.26026 3.7312,-0.64557 4.0266,-0.85622 z m 13.14105,-34.0139 c 0.46274,-2.06045 0.34646,-2.62739 -0.74873,-3.65065 -0.7131,-0.66626 -1.78538,-1.10339 -2.38285,-0.9714 -0.59745,0.13198 -1.42416,0.26466 -1.83711,0.29482 -0.4447,0.0324 0.0408,1.52415 1.19065,3.6585 1.06782,1.982 2.23146,3.49212 2.58587,3.35581 0.35441,-0.1363 0.89088,-1.3455 1.19217,-2.68708 z"
         style="fill:#626363" />
      <path
         inkscape:connector-curvature="0"
         id="path3295"
         d="m 139.76102,375.09241 c -16.50679,-3.48904 -23.28712,-10.01396 -17.19004,-16.54257 0.91314,-0.97777 2.80915,-2.28444 4.21334,-2.9037 l 2.5531,-1.12593 0.72346,-5.9671 c 0.39791,-3.2819 1.56885,-9.22758 2.60209,-13.21263 1.85269,-7.14542 1.90713,-8.65551 0.31206,-8.65551 -0.44625,0 -1.54789,-0.66848 -2.4481,-1.48553 -1.20754,-1.09596 -1.63675,-2.13906 -1.63675,-3.97773 0,-6.26599 3.63705,-8.91944 8.78425,-6.40862 0.67511,0.32931 1.7537,-0.2467 3.19373,-1.70555 4.1036,-4.15727 7.48588,-5.42017 14.42264,-5.38517 6.72174,0.0339 9.98518,1.22049 13.95381,5.0736 1.67866,1.62979 2.11951,1.75075 3.8475,1.0557 2.97048,-1.19481 4.53169,-0.95509 6.33444,0.97266 2.1099,2.2562 2.11977,4.98545 0.0309,8.53249 -1.47905,2.51144 -1.55634,2.99754 -0.93178,5.85942 1.02528,4.69816 0.82841,8.43593 -0.68635,13.03121 -1.40917,4.27491 -1.46784,5.46213 -0.45459,9.19793 0.47682,1.75798 1.10496,2.34099 3.22819,2.99623 3.30275,1.01925 7.77247,4.69823 8.54075,7.02979 1.86918,5.67263 -5.0086,10.53588 -19.17814,13.56079 -6.3718,1.36025 -23.89868,1.39518 -30.21445,0.0602 z m 27.97542,-7.9476 c 4.06251,-1.22093 6.96831,-2.93584 7.91311,-4.67007 0.40747,-0.74792 0.35407,-3.21789 -0.15989,-7.39558 l -0.77168,-6.27261 -1.36755,1.48238 c -0.75215,0.81531 -1.983,1.48238 -2.73524,1.48238 -0.94307,0 -1.67952,0.75453 -2.37212,2.43033 -1.06608,2.5795 -2.73535,3.27871 -7.86828,3.29579 -3.17804,0.0106 -4.59007,-0.98115 -5.08285,-3.5699 -0.28692,-1.50727 -0.7788,-2.15622 -1.63433,-2.15622 -3.30553,0 -6.13528,-3.41329 -6.12937,-7.39338 0.002,-1.36505 0.1572,-1.27293 1.20913,0.71767 1.54495,2.92355 3.02628,3.80989 6.3573,3.8038 2.37479,-0.004 2.85308,-0.29658 4.18883,-2.55946 l 1.50794,-2.55456 -1.60472,-1.56187 c -1.87409,-1.82406 -3.17835,-4.52422 -2.65618,-5.49906 0.79876,-1.49125 4.94717,-2.31472 7.56442,-1.50156 4.23757,1.3166 4.54238,2.49828 1.48459,5.75549 -2.25818,2.40544 -2.52796,2.99405 -1.94667,4.24728 1.03991,2.24201 3.2104,3.67863 5.55777,3.67863 1.70512,0 2.61031,-0.59859 4.5262,-2.99312 4.36655,-5.45744 4.64015,-11.67902 0.91709,-20.85445 -4.12135,-10.15706 -9.17813,-14.47388 -17.91843,-15.29646 -5.69785,-0.53625 -9.97104,1.16186 -14.45536,5.74437 l -3.09157,3.15929 -2.3191,-1.36511 c -1.2755,-0.75083 -2.55705,-1.36513 -2.8479,-1.36513 -1.10101,0 -3.24744,2.98775 -3.23832,4.50762 0.015,2.48925 0.83367,3.40606 3.85726,4.31931 l 2.81162,0.84923 -1.45567,5.30479 c -1.79173,6.52947 -3.76484,18.09272 -4.23219,24.80233 l -0.34972,5.02078 2.63026,1.85497 c 3.27027,2.30634 7.62516,4.17317 11.48272,4.92234 5.36867,1.04265 18.24106,0.82824 22.2289,-0.37024 z m -21.16388,-35.40782 c -2.93251,-1.37152 -3.83609,-5.58322 -1.92126,-8.95519 0.8816,-1.55249 1.50414,-1.83085 4.09465,-1.83085 1.68024,0 3.23056,0.3278 3.44516,0.72845 0.2146,0.40064 0.58051,0.59314 0.81315,0.42776 0.55843,-0.39698 0.8786,5.07166 0.399,6.81518 -0.38532,1.4008 -3.32432,3.53198 -4.75941,3.45122 -0.44404,-0.0251 -1.37612,-0.31144 -2.07129,-0.63657 z m 5.18765,-7.3876 c 0.16966,-1.69602 -0.0243,-1.96494 -1.41718,-1.96494 -1.88031,0 -2.67995,1.68883 -1.54606,3.26526 1.17392,1.63209 2.73859,0.94548 2.96324,-1.30032 z m 13.15905,3.76909 c -2.73787,-3.15906 -0.58954,-8.61835 3.37839,-8.58509 4.20355,0.0353 6.45572,5.15489 3.77257,8.57584 -1.53001,1.95072 -5.46392,1.95581 -7.15096,0.01 z m 6.52251,-5.36584 c 0,-1.58126 -1.93122,-2.36871 -2.94382,-1.20033 -1.04408,1.20468 -0.0142,3.1087 1.54337,2.85349 0.91636,-0.15015 1.40045,-0.72159 1.40045,-1.65316 z m -5.52366,31.34811 c 1.36602,-2.07633 0.98645,-3.41636 -1.49965,-5.29445 l -2.36439,-1.78615 -1.51806,1.89271 c -0.83493,1.04099 -1.99783,2.19737 -2.5842,2.56974 -0.72204,0.4585 -0.94928,1.19272 -0.70404,2.27475 0.32395,1.42937 0.75634,1.59772 4.10361,1.59772 2.83486,0 3.94149,-0.30396 4.56673,-1.25432 z m 12.38029,-31.76022 c 0.2241,-0.41838 0.533,-1.67985 0.68645,-2.80327 0.30836,-2.25758 -1.50942,-4.36711 -3.39943,-3.945 -0.57073,0.12746 -1.40615,0.25643 -1.85648,0.28659 -0.58085,0.0389 -0.44547,0.65976 0.46589,2.13655 0.70658,1.14494 1.28469,2.37059 1.28469,2.72365 0,0.776 1.31018,2.36216 1.95114,2.36216 0.25317,0 0.64365,-0.34231 0.86774,-0.76068 z"
         style="fill:#96680d" />
      <path
         inkscape:connector-curvature="0"
         id="path3767"
         d="m 139.84042,375.84703 c -6.70064,-1.63154 -14.0867,-3.31437 -18.93397,-9.36591 -2.04417,-3.75566 1.01144,-7.76008 3.89659,-9.35359 2.64912,-1.36739 5.65353,-1.98746 5.02559,-6.21589 1.07594,-7.69132 2.82116,-15.24969 4.65995,-22.72347 -1.16137,-3.08793 -6.55584,-2.52296 -5.56214,-7.46296 -0.22959,-5.25991 4.45119,-8.69184 8.48147,-6.50581 3.24942,0.66404 4.85658,-3.19308 7.52455,-4.44759 7.1099,-4.31448 16.0598,-3.49935 22.97678,0.88167 2.39097,3.44706 5.76256,3.34017 9.0586,2.24467 4.20899,-0.0662 6.64862,6.17189 3.67026,9.71877 -2.55777,3.11032 -0.8003,6.96751 -0.6286,10.5738 0.31998,4.01245 -0.59432,7.98712 -2.10142,11.5703 -1.28592,4.37957 0.32803,9.93934 4.71062,10.63667 3.63664,1.39575 8.23152,4.533 7.4817,9.70954 -1.11098,5.08761 -6.51778,6.14676 -10.11458,8.0878 -10.14535,3.9471 -21.00286,3.83777 -31.57909,3.53544 -2.86454,-0.15345 -5.72493,-0.43391 -8.56631,-0.88344 z m 33.65952,-3.46652 c 1.26553,-0.33327 2.53107,-0.66654 3.7966,-0.99982 0.0248,-7.29785 -0.0967,-14.69175 -1.68542,-21.79994 -2.70383,1.34768 -6.5155,1.57829 -7.68288,5.38188 -0.3771,2.38873 -1.99781,2.46889 -3.70232,2.26711 -2.41338,0 -4.82674,0 -7.24012,0 -0.5387,-3.34931 -2.58503,-5.99589 -5.54585,-6.49353 -2.01054,-0.45901 -3.96293,-5.65977 -0.70759,-2.67574 3.22957,2.79842 8.27136,2.16035 10.10043,-2.27901 2.3442,-4.23178 -4.88835,-4.82756 -2.76656,-9.01831 2.60349,-1.80488 7.20195,-2.2267 9.48333,0.59481 0.938,3.64414 -6.72877,4.98628 -2.98837,9.09024 2.60907,4.65169 9.35001,3.86938 11.37961,-1.04912 3.96758,-7.17645 2.37661,-16.49555 -1.20285,-23.42678 -3.17325,-6.97979 -9.29684,-12.40154 -16.28769,-12.68403 -6.42053,-0.7873 -13.8161,1.00124 -17.77103,7.3601 -3.1147,1.55445 -8.29054,-4.22376 -9.73404,2.01348 -1.40247,4.4064 2.44211,6.03041 5.14426,7.04438 1.47459,3.37958 -1.43837,6.75561 -1.61581,10.21133 -2.49595,11.19327 -3.31435,22.8497 -3.05516,34.35352 2.58111,2.00729 6.44958,1.82812 9.55832,2.73624 7.79673,1.33093 15.70554,0.54786 23.54647,0.364 3.00253,-0.18095 6.00216,-0.47882 8.97667,-0.99081 z m -28.04786,-42.37815 c -3.41136,-3.48734 0.50577,-10.84796 4.76746,-8.9186 4.50005,0.69277 5.04988,8.21947 0.85504,9.97841 -1.82061,1.02245 -4.25113,0.77935 -5.6225,-1.05981 z m 6.6504,-4.21013 c 2.73195,-4.66559 -5.92757,-3.56006 -2.6977,0.0157 0.75478,0.93278 1.95949,0.9788 2.6977,-0.0157 z m 14.23093,2.02111 c -3.50772,-3.03481 0.21559,-9.48791 4.07236,-7.73601 5.15282,0.44816 3.486,9.65784 -1.15766,9.33734 -1.11513,4.4e-4 -2.20086,-0.62231 -2.9147,-1.60133 z m 5.90099,-5.24312 c -0.46138,-4.68009 -5.96335,2.21829 -1.79026,1.69583 0.79835,-0.0183 1.93752,-0.57059 1.79026,-1.69583 z m -5.07889,30.72306 c 0.91026,-3.01879 -4.03993,-7.39728 -5.68154,-4.34425 -2.09139,1.03977 -5.88907,6.10763 -1.68525,6.59916 2.4291,0.002 6.19377,1.0912 7.36679,-2.25491 z m 12.02308,-31.05165 c 2.81976,-3.61139 -0.99735,-9.53943 -4.73995,-6.87738 -0.43807,3.09852 2.31279,6.40003 3.70015,8.77732 0.55442,-0.42936 0.70119,-1.28386 1.0398,-1.89994 z"
         style="fill:#ffffff;fill-opacity:1" />
      <path
         style="fill:#00071a;fill-opacity:1"
         d="m 140.12945,375.21739 c -6.57806,-1.60264 -13.82898,-3.25567 -18.58758,-9.20004 -2.00677,-3.68916 0.99294,-7.62267 3.82531,-9.18796 2.60065,-1.34317 5.5501,-1.95226 4.93364,-6.10581 1.05626,-7.55512 2.76955,-14.97965 4.5747,-22.32107 -1.14012,-3.03325 -6.4359,-2.47828 -5.46038,-7.3308 -0.22539,-5.16677 4.36976,-8.53791 8.3263,-6.3906 3.18997,0.65228 4.76773,-3.13654 7.38689,-4.36884 6.97983,-4.23806 15.76599,-3.43737 22.55644,0.86607 2.34723,3.38601 5.65713,3.28102 8.89287,2.20491 4.13199,-0.0651 6.52699,6.0626 3.60312,9.54667 -2.51098,3.05524 -0.78566,6.84413 -0.6171,10.38655 0.31413,3.9414 -0.58344,7.84569 -2.06298,11.36541 -1.26239,4.30202 0.32203,9.76332 4.62444,10.4483 3.57012,1.37103 8.08093,4.45273 7.34483,9.5376 -1.09066,4.99751 -6.39854,6.03792 -9.92954,7.94457 -9.95974,3.87721 -20.61862,3.76982 -31.00137,3.47284 -2.81214,-0.15073 -5.62019,-0.42623 -8.40959,-0.8678 z m 33.04374,-3.40513 c 1.24238,-0.32737 2.48476,-0.65474 3.72714,-0.98211 0.0244,-7.16861 -0.0949,-14.43158 -1.65458,-21.41389 -2.65437,1.32381 -6.3963,1.55033 -7.54233,5.28657 -0.3702,2.34642 -1.96126,2.42517 -3.63459,2.22696 -2.36923,0 -4.73844,0 -7.10767,0 -0.52885,-3.28999 -2.53773,-5.88971 -5.44438,-6.37854 -1.97376,-0.45087 -3.89044,-5.55954 -0.69465,-2.62835 3.17048,2.74886 8.12004,2.12209 9.91564,-2.23866 2.30132,-4.15684 -4.79892,-4.74207 -2.71594,-8.8586 2.55586,-1.77293 7.07019,-2.18727 9.30984,0.58427 0.92085,3.57961 -6.60568,4.89798 -2.9337,8.92927 2.56134,4.56932 9.17895,3.80085 11.17142,-1.03055 3.895,-7.04936 2.33314,-16.20343 -1.18084,-23.01191 -3.1152,-6.8562 -9.12676,-12.18193 -15.98972,-12.45941 -6.30307,-0.77337 -13.56334,0.98351 -17.44591,7.22975 -3.05772,1.52693 -8.13887,-4.14896 -9.55596,1.97783 -1.37681,4.32837 2.39743,5.92361 5.05015,6.91964 1.44761,3.31972 -1.41206,6.63596 -1.58625,10.03049 -2.45029,10.99506 -3.25372,22.44506 -2.99926,33.74516 2.53388,1.97175 6.33157,1.79576 9.38344,2.68779 7.65409,1.30737 15.41821,0.53816 23.11569,0.35755 2.94762,-0.17773 5.89237,-0.47033 8.81246,-0.97326 z m -27.53474,-41.62769 c -3.34895,-3.42559 0.49652,-10.65586 4.68023,-8.76065 4.41773,0.6805 4.95751,8.0739 0.83941,9.8017 -1.7873,1.00434 -4.17336,0.76554 -5.51964,-1.04105 z m 6.52873,-4.13557 c 2.68197,-4.58297 -5.81913,-3.49702 -2.64834,0.0154 0.74097,0.91627 1.92363,0.96148 2.64834,-0.0154 z m 13.97058,1.98532 c -3.44354,-2.98107 0.21164,-9.3199 3.99787,-7.59902 5.05855,0.44023 3.42222,9.48681 -1.13648,9.17199 -1.09473,4.3e-4 -2.16061,-0.61129 -2.86139,-1.57297 z m 5.79304,-5.15027 c -0.45294,-4.59721 -5.85426,2.17901 -1.7575,1.66579 0.78374,-0.018 1.90207,-0.56048 1.7575,-1.66579 z m -4.98598,30.17899 c 0.89362,-2.96533 -3.96602,-7.26627 -5.5776,-4.26731 -2.05312,1.02134 -5.78133,5.99947 -1.65441,6.48228 2.38466,0.002 6.08045,1.07189 7.23201,-2.21497 z m 11.80314,-30.50176 c 2.76817,-3.54744 -0.97911,-9.37051 -4.65324,-6.7556 -0.43006,3.04366 2.27048,6.28669 3.63245,8.62189 0.54428,-0.42176 0.68837,-1.26112 1.02079,-1.86629 z"
         id="path3299"
         inkscape:connector-curvature="0" />
      <path
         inkscape:connector-curvature="0"
         id="path3773"
         d="m 162.38364,348.63436 c 0,0.43173 0.43174,1.29519 0,1.29519 -0.43173,0 0,-1.72692 0,-1.29519 0,3.42507 0,4.06416 0,5.50458"
         style="fill:#666666;stroke:#000000;stroke-width:0.97139627px;stroke-linecap:butt;stroke-linejoin:miter;stroke-opacity:0.56000001" />
    </g>
  </g>
</svg>
